# xmcd CD database file
#
# Track frame offsets:
#	150
#	14890
#	32652
#	48230
#	65682
#	86022
#	102972
#	118925
#	136690
#	154435
#	170245
#	185657
#	204297
#	227832
#	244557
#	258345
#
# Disc length: 3761 seconds
#
# Revision: 1
# Processed by: cddbd v1.5.1PL0 Copyright (c) Steve Scherf et al.
# Submitted via: CDex 1.51
#
DISCID=e40eaf10
DTITLE=Ruby Turner - Guilty
DYEAR=1996
DGENRE=Blues
TTITLE0=You Can't Do That
TTITLE1=There Is Something on Your Mind
TTITLE2=Your Pouring Water On A Drowning Man
TTITLE3=Me Oh My
TTITLE4=Wang Dang Doodle
TTITLE5=Don't Mess Up A Good Thing
TTITLE6=Bring It On Home To Me
TTITLE7=Love Like Blood
TTITLE8=Ain't Nobody
TTITLE9=One Time  Around
TTITLE10=Guilty
TTITLE11=Take It As It Comes
TTITLE12=That Way
TTITLE13=Over The Edge
TTITLE14=A Rockin Good Way
TTITLE15=My Eyes Are Weeping
EXTD=YEAR: 1996
EXTT0=
EXTT1=
EXTT2=
EXTT3=
EXTT4=
EXTT5=
EXTT6=
EXTT7=
EXTT8=
EXTT9=
EXTT10=
EXTT11=
EXTT12=
EXTT13=
EXTT14=
EXTT15=
PLAYORDER=
